<svg width="68" height="34" viewBox="0 0 68 34" fill="none" xmlns="http://www.w3.org/2000/svg">
<path d="M17.964 24.536H8.532L7.02 29H0.576L9.72 3.728H16.848L25.992 29H19.476L17.964 24.536ZM16.38 19.784L13.248 10.532L10.152 19.784H16.38ZM34.931 2.36V29H28.775V2.36H34.931ZM49.4722 14.024H46.1602V29H40.0042V14.024H37.7722V8.912H40.0042V8.336C40.0042 5.864 40.7122 3.992 42.1282 2.72C43.5442 1.424 45.6202 0.775999 48.3562 0.775999C48.8122 0.775999 49.1482 0.787998 49.3642 0.811998V6.032C48.1882 5.96 47.3602 6.128 46.8802 6.536C46.4002 6.944 46.1602 7.676 46.1602 8.732V8.912H49.4722V14.024ZM63.9177 14.924C62.8377 14.924 61.9497 14.612 61.2537 13.988C60.5817 13.34 60.2457 12.548 60.2457 11.612C60.2457 10.652 60.5817 9.848 61.2537 9.2C61.9497 8.552 62.8377 8.228 63.9177 8.228C64.9737 8.228 65.8377 8.552 66.5097 9.2C67.2057 9.848 67.5537 10.652 67.5537 11.612C67.5537 12.548 67.2057 13.34 66.5097 13.988C65.8377 14.612 64.9737 14.924 63.9177 14.924ZM67.4817 23.312L63.4857 33.644H59.5617L61.6497 23.312H67.4817Z" fill="black"/>
</svg>
