<svg width="150" height="150" viewBox="0 0 150 150" fill="none" xmlns="http://www.w3.org/2000/svg">
<rect width="150" height="150" rx="8" fill="#93C5FD"/>
<rect x="50" y="50" width="50" height="50" rx="7" fill="#6D28D9"/>
<path d="M62 37C62 35.8954 62.8954 35 64 35H109C113.418 35 117 38.5817 117 43V88C117 89.1046 116.105 90 115 90H64C62.8954 90 62 89.1046 62 88V37Z" fill="#8B5CF6"/>
<path d="M72.8238 53.2319L75.4157 56.8308C75.5353 56.9969 75.8942 57.1076 76.0935 56.8308C76.3168 56.5207 80.5993 50.5373 82.7127 47.5843C83.1882 46.9199 84.1759 46.6984 84.7862 47.5843C85.3843 48.4526 85.2647 49.6329 84.8659 50.242L77.0904 61.0388C76.572 61.7586 75.5752 62.6998 74.4985 61.2049C73.473 59.7809 71.7352 57.3384 70.7503 55.9514C70.3919 55.4466 69.8263 54.1731 70.551 53.1211C70.9324 52.5675 71.7472 51.7369 72.8238 53.2319Z" fill="white"/>
<path d="M89 52C89 50.8954 89.8954 50 91 50H107.6C111.135 50 114 52.8654 114 56.4V56.4C114 57.2837 113.284 58 112.4 58H91C89.8954 58 89 57.1046 89 56V52Z" fill="white"/>
<path d="M89 71C89 69.8955 89.8954 69 91 69H107.6C111.135 69 114 71.8654 114 75.4V75.4C114 76.2837 113.284 77 112.4 77H91C89.8954 77 89 76.1046 89 75V71Z" fill="white"/>
<circle cx="77.5" cy="72.5" r="7.5" fill="white"/>
</svg>
