<svg width="150" height="150" viewBox="0 0 150 150" fill="none" xmlns="http://www.w3.org/2000/svg">
<rect width="150" height="150" rx="8" fill="#FEE2E2"/>
<rect x="25" y="25" width="100" height="100" rx="7" fill="#6D28D9"/>
<rect x="50" y="50" width="50" height="50" rx="7" fill="#8B5CF6"/>
<path d="M66.373 72.3864L70.6927 78.3847C70.8921 78.6615 71.4902 78.8461 71.8225 78.3847C72.1947 77.8679 79.3322 67.8955 82.8545 62.9738C83.647 61.8665 85.2932 61.4974 86.3103 62.9738C87.3071 64.421 87.1077 66.3882 86.4432 67.4033L73.484 85.398C72.62 86.5976 70.9586 88.1664 69.1642 85.6748C67.455 83.3015 64.5586 79.2306 62.9172 76.919C62.3198 76.0777 61.3771 73.9552 62.5849 72.2019C63.2206 71.2791 64.5787 69.8949 66.373 72.3864Z" fill="white"/>
<path d="M83 25C83 28.866 79.6421 25 75.5 25C71.3579 25 68 28.866 68 25C68 21.134 71.3579 18 75.5 18C79.6421 18 83 21.134 83 25Z" fill="#F87171"/>
</svg>
